<svg width="24" height="24" viewBox="0 0 24 24" fill="none" xmlns="http://www.w3.org/2000/svg">
<g clip-path="url(#clip0_33619_252)">
<path d="M1.99181 13.4275H22.0084C22.8334 13.4275 23.5021 12.7587 23.5021 11.9337C23.5021 11.1087 22.8334 10.4399 22.0084 10.4399H1.99181C1.16681 10.4399 0.498047 11.1087 0.498047 11.9337C0.498 12.7587 1.16681 13.4275 1.99181 13.4275Z" fill="#666666"/>
<path d="M13.4938 7.2179C13.0578 7.2179 12.7031 7.57255 12.7031 8.00854V9.03355H18.8221V8.00854C18.8221 7.57255 18.4675 7.2179 18.0315 7.2179H13.4938Z" fill="#666666"/>
<path d="M3.77151 8.00865C3.77151 6.79726 4.75701 5.81176 5.9684 5.81176H10.5061C11.0826 5.81176 11.6076 6.03526 11.9999 6.39976C12.3922 6.03526 12.9172 5.81176 13.4937 5.81176H18.0314C19.2428 5.81176 20.2283 6.79726 20.2283 8.00865V9.03367H22.5106V4.19054C22.5106 3.36554 21.8418 2.69678 21.0168 2.69678H2.98302C2.15802 2.69678 1.48926 3.36554 1.48926 4.19054V9.03367H3.77151V8.00865Z" fill="#666666"/>
<path d="M5.96838 7.2179C5.53239 7.2179 5.17773 7.57255 5.17773 8.00854V9.03355H11.2968V8.00854C11.2968 7.57255 10.9421 7.2179 10.5061 7.2179H5.96838Z" fill="#666666"/>
<path d="M0 14.8336V21.3032H1.40625V18.7392H22.5938V21.3032H24V14.8336H0Z" fill="#666666"/>
</g>
<defs>
<clipPath id="clip0_33619_252">
<rect width="24" height="24" fill="white"/>
</clipPath>
</defs>
</svg>
