<svg width="51" height="51" viewBox="0 0 51 51" fill="none" xmlns="http://www.w3.org/2000/svg">
<g clip-path="url(#clip0_33602_383)">
<path d="M46.4821 14.0662L46.4806 14.0273C46.4588 13.547 46.4444 13.0389 46.4356 12.4736C46.3948 9.71668 44.2032 7.43626 41.446 7.28214C35.6972 6.96133 31.2501 5.08679 27.4503 1.38311L27.4178 1.35221C26.1784 0.215817 24.3089 0.215817 23.0691 1.35221L23.0367 1.38311C19.2369 5.08679 14.7897 6.96133 9.04097 7.28252C6.28409 7.43626 4.09218 9.71668 4.05136 12.4739C4.04297 13.0355 4.02809 13.5436 4.00634 14.0273L4.00406 14.1177C3.89229 19.9797 3.75343 27.2753 6.19407 33.8972C7.53607 37.5387 9.56854 40.7041 12.2346 43.3061C15.2711 46.2694 19.2483 48.6219 24.0556 50.2981C24.212 50.3526 24.3745 50.3969 24.54 50.4301C24.7735 50.4766 25.0085 50.4999 25.2435 50.4999C25.4785 50.4999 25.7138 50.4766 25.9469 50.4301C26.1125 50.3969 26.2761 50.3522 26.4333 50.2973C31.2348 48.6181 35.2078 46.2644 38.2416 43.3016C40.9066 40.6988 42.939 37.5326 44.2822 33.8903C46.732 27.2486 46.5935 19.9393 46.4821 14.0662ZM41.5295 32.8753C38.9554 39.8546 33.7006 44.6478 25.4651 47.5279C25.4357 47.5378 25.4044 47.5465 25.372 47.553C25.287 47.5698 25.2004 47.5698 25.1141 47.5526C25.0821 47.5462 25.0508 47.5378 25.0218 47.5279C16.7775 44.6531 11.5194 39.8626 8.94713 32.8829C6.69761 26.779 6.82502 20.0819 6.93755 14.1738L6.93831 14.141C6.9612 13.6332 6.97646 13.1014 6.98485 12.517C7.00316 11.2929 7.9782 10.2801 9.20462 10.2118C12.4578 10.0302 15.3157 9.40158 17.9418 8.28998C20.5644 7.17991 22.8936 5.61513 25.0619 3.50637C25.1721 3.41329 25.3152 3.41291 25.425 3.50637C27.5937 5.61513 29.9229 7.17991 32.5452 8.28998C35.1712 9.40158 38.0292 10.0302 41.2827 10.2118C42.5091 10.2801 43.4842 11.2929 43.5021 12.5174C43.5109 13.1049 43.5261 13.6366 43.549 14.141C43.6612 20.056 43.7855 26.7584 41.5295 32.8753Z" fill="#244D4D"/>
<path d="M25.2429 13.0401C18.3719 13.0401 12.7822 18.6301 12.7822 25.5008C12.7822 32.3718 18.3719 37.9619 25.2429 37.9619C32.1136 37.9619 37.7036 32.3718 37.7036 25.5008C37.7036 18.6301 32.1136 13.0401 25.2429 13.0401ZM25.2429 35.0276C19.9897 35.0276 15.7161 30.754 15.7161 25.5008C15.7161 20.2476 19.9897 15.974 25.2429 15.974C30.4958 15.974 34.7694 20.2476 34.7694 25.5008C34.7694 30.754 30.4958 35.0276 25.2429 35.0276Z" fill="#244D4D"/>
<path d="M28.8237 21.6323L23.0361 27.42L21.4652 25.8491C20.8922 25.2761 19.9633 25.2761 19.3904 25.8491C18.8178 26.422 18.8178 27.3509 19.3904 27.9235L21.9989 30.532C22.2854 30.8185 22.6607 30.9615 23.0361 30.9615C23.4114 30.9615 23.7868 30.8185 24.0733 30.532L30.8986 23.7067C31.4711 23.1338 31.4711 22.2049 30.8986 21.6323C30.3256 21.0589 29.3967 21.0589 28.8237 21.6323Z" fill="#244D4D"/>
</g>
<defs>
<clipPath id="clip0_33602_383">
<rect width="50" height="50" fill="white" transform="translate(0.243164 0.5)"/>
</clipPath>
</defs>
</svg>
