<svg width="51" height="51" viewBox="0 0 51 51" fill="none" xmlns="http://www.w3.org/2000/svg">
<g clip-path="url(#clip0_33602_404)">
<path d="M47.5648 18.2176C46.9051 16.1747 47.1863 13.108 45.4715 10.7401C43.7432 8.35359 40.7372 7.67527 39.0398 6.43386C37.3604 5.20554 35.7979 2.53259 32.9728 1.61071C30.2273 0.714815 27.4199 1.93054 25.2432 1.93054C23.0667 1.93054 20.2595 0.714522 17.5136 1.61062C14.689 2.5323 13.1252 5.20583 11.4468 6.43357C9.75127 7.67351 6.74307 8.35368 5.01504 10.7398C3.30166 13.1057 3.58008 16.1795 2.92148 18.2176C2.29473 20.1573 0.243164 22.4853 0.243164 25.5002C0.243164 28.5169 2.29238 30.8359 2.92148 32.7827C3.58125 34.8257 3.3 37.8924 5.01484 40.2602C6.74307 42.6469 9.74893 43.3251 11.4465 44.5666C13.1257 45.7947 14.6885 48.4678 17.5136 49.3896C20.2571 50.2849 23.0689 49.0698 25.2432 49.0698C27.4144 49.0698 30.2327 50.2837 32.9728 49.3897C35.7975 48.468 37.3603 45.7951 39.0396 44.5668C40.7351 43.3268 43.7433 42.6467 45.4713 40.2605C47.1848 37.8945 46.9062 34.8211 47.5648 32.7828C48.1916 30.8429 50.2432 28.5149 50.2432 25.5002C50.2432 22.4837 48.1944 20.1653 47.5648 18.2176ZM43.8479 31.5816C43.0789 33.962 43.2804 36.6259 42.3077 37.9691C41.322 39.3302 38.7322 39.9518 36.7339 41.4135C34.7574 42.859 33.3722 45.1503 31.761 45.6759C30.2368 46.1734 27.7528 45.1634 25.2433 45.1634C22.7153 45.1634 20.2569 46.1756 18.7254 45.6759C17.1145 45.1503 15.7312 42.8605 13.7525 41.4135C11.766 39.9606 9.16152 39.3261 8.17861 37.9689C7.20908 36.6302 7.40293 33.9478 6.63857 31.5817C5.88936 29.2635 4.14941 27.2561 4.14941 25.5002C4.14941 23.7425 5.88779 21.7421 6.63838 19.4187C7.40742 17.0384 7.20596 14.3743 8.17861 13.0312C9.16377 11.6711 11.7555 11.0473 13.7525 9.58679C15.7353 8.13669 17.1118 5.85085 18.7252 5.32439C20.2481 4.82751 22.7402 5.83698 25.2431 5.83698C27.7756 5.83698 30.2278 4.82409 31.7609 5.32439C33.3717 5.84997 34.7562 8.1406 36.7339 9.58689C38.7201 11.0397 41.3248 11.6742 42.3077 13.0313C43.2774 14.3703 43.0825 17.05 43.8478 19.4185V19.4186C44.597 21.7369 46.3369 23.7442 46.3369 25.5002C46.3369 27.2579 44.5985 29.2583 43.8479 31.5816ZM34.2415 19.2311C35.0043 19.9939 35.0043 21.2305 34.2415 21.9932L24.4655 31.7692C23.7027 32.532 22.466 32.5319 21.7033 31.7692L16.2449 26.3108C15.4821 25.548 15.482 24.3114 16.2448 23.5487C17.0076 22.786 18.2444 22.7859 19.0069 23.5487L23.0844 27.626L31.4792 19.2312C32.242 18.4684 33.4787 18.4684 34.2415 19.2311Z" fill="#244D4D"/>
</g>
<defs>
<clipPath id="clip0_33602_404">
<rect width="50" height="50" fill="white" transform="translate(0.243164 0.5)"/>
</clipPath>
</defs>
</svg>
