<svg width="24" height="24" viewBox="0 0 24 24" fill="none" xmlns="http://www.w3.org/2000/svg">
<g clip-path="url(#clip0_33619_229)">
<path d="M19.6216 9.78949C19.9025 9.78949 20.1302 9.5618 20.1302 9.28091V7.64945C20.1302 7.36856 19.9025 7.14087 19.6216 7.14087L18.8977 7.14528L16.5225 9.78949H19.6216Z" fill="#666666"/>
<path d="M4.37675 9.78929H7.50026L5.08382 7.14075H4.37675C4.09585 7.14075 3.86816 7.36844 3.86816 7.64933V9.28066C3.86816 9.5616 4.09585 9.78929 4.37675 9.78929Z" fill="#666666"/>
<path d="M12.2905 12.4121L17.0037 7.14087H6.99414L11.7848 12.4141C11.9206 12.5636 12.1559 12.5626 12.2905 12.4121Z" fill="#666666"/>
<path d="M13.6171 19.8301H12.7415V13.9114C12.5315 14.0327 12.2915 14.0989 12.0439 14.0999C12.042 14.0999 12.0402 14.0999 12.0383 14.0999C11.7889 14.0999 11.5469 14.0336 11.3352 13.9114V19.8301H10.3799C9.99159 19.8301 9.67676 20.1449 9.67676 20.5332C9.67676 20.9216 9.99159 21.2364 10.3799 21.2364H13.6172C14.0055 21.2364 14.3203 20.9216 14.3203 20.5332C14.3203 20.1449 14.0054 19.8301 13.6171 19.8301Z" fill="#666666"/>
<path d="M5.92969 11.7457H1.40635V3.41057C1.40635 3.02223 1.09152 2.7074 0.703176 2.7074C0.314835 2.7074 0 3.02223 0 3.41057V20.5895C0 20.9778 0.314835 21.2927 0.703176 21.2927C1.09152 21.2927 1.40635 20.9778 1.40635 20.5895V15.3371H6.51905V20.5895C6.51905 20.9778 6.83388 21.2927 7.22223 21.2927C7.61057 21.2927 7.9254 20.9778 7.9254 20.5895V13.7414C7.9254 12.641 7.03012 11.7457 5.92969 11.7457Z" fill="#666666"/>
<path d="M23.2961 2.7074C22.9078 2.7074 22.593 3.02223 22.593 3.41057V11.7457H18.1744C17.0739 11.7457 16.1787 12.641 16.1787 13.7414V20.5895C16.1787 20.9778 16.4935 21.2927 16.8819 21.2927C17.2702 21.2927 17.5851 20.9778 17.5851 20.5895V15.336H22.593V20.5895C22.593 20.9778 22.9078 21.2927 23.2962 21.2927C23.6845 21.2927 23.9994 20.9778 23.9994 20.5895V3.41057C23.9993 3.02223 23.6845 2.7074 23.2961 2.7074Z" fill="#666666"/>
</g>
<defs>
<clipPath id="clip0_33619_229">
<rect width="24" height="24" fill="white"/>
</clipPath>
</defs>
</svg>
