<svg width="51" height="51" viewBox="0 0 51 51" fill="none" xmlns="http://www.w3.org/2000/svg">
<g clip-path="url(#clip0_33602_392)">
<path d="M40.9333 20.9121H36.1221V17.6699C36.1221 16.8609 35.4662 16.2051 34.6572 16.2051H1.70801C0.899023 16.2051 0.243164 16.8609 0.243164 17.6699V44.3431C0.243164 45.1521 0.899023 45.8079 1.70801 45.8079H6.69629C8.29043 52.0463 17.0941 52.0421 18.6858 45.8079H31.8004C33.3945 52.0463 42.1982 52.0421 43.7899 45.8079H48.7783C49.5873 45.8079 50.2432 45.1521 50.2432 44.3431V30.222C50.2432 25.0885 46.0667 20.9121 40.9333 20.9121ZM12.6911 47.5853C10.9033 47.5853 9.44893 46.1308 9.44893 44.3431C9.62695 40.0419 15.756 40.0432 15.9333 44.3431C15.9333 46.1308 14.4788 47.5853 12.6911 47.5853ZM33.1924 40.2371C32.5298 40.9791 32.044 41.8814 31.8004 42.8781H18.6858C17.0917 36.6398 8.28799 36.644 6.69629 42.8781H3.17285V19.1347H33.1924V40.2371ZM37.7952 47.5853C36.0074 47.5853 34.553 46.1308 34.553 44.3431C34.7311 40.0419 40.8601 40.0432 41.0374 44.3431C41.0374 46.1308 39.583 47.5853 37.7952 47.5853ZM47.3135 42.8782H43.7916C43.1322 40.1798 40.6939 38.1712 37.7953 38.1712H36.1221V23.8418H39.4685V33.3601C39.4685 34.169 40.1243 34.8249 40.9333 34.8249H47.3135V42.8782ZM47.3135 31.8951H42.3981V24.0114C45.2124 24.6752 47.3135 27.2079 47.3135 30.222V31.8951Z" fill="#244D4D"/>
<path d="M36.2259 12.8587H40.1485C42.092 12.7812 42.0906 10.0056 40.1485 9.92899H37.9551L38.2513 8.15164H40.1485C42.092 8.0742 42.0906 5.29861 40.1485 5.22195H38.7396L39.0358 3.44461H41.7174C43.661 3.36717 43.6595 0.591583 41.7174 0.514923H37.7949C37.0788 0.514923 36.4676 1.0326 36.35 1.73895L34.781 11.153C34.6322 12.0461 35.322 12.8587 36.2259 12.8587Z" fill="#222222"/>
<path d="M26.8118 12.8587H30.7343C32.6779 12.7812 32.6764 10.0056 30.7343 9.92899H28.541L28.8372 8.15164H30.7343C32.6779 8.0742 32.6764 5.29861 30.7343 5.22195H29.3255L29.6218 3.44461H32.3034C34.2469 3.36717 34.2455 0.591583 32.3034 0.514923H28.3809C27.6648 0.514923 27.0537 1.0326 26.936 1.73895L25.3669 11.153C25.2181 12.0461 25.908 12.8587 26.8118 12.8587Z" fill="#244D4D"/>
<path d="M15.5886 12.8388C16.7259 13.0283 17.2063 12.0429 17.2744 11.6346L17.5146 10.1934L20.3985 12.5316C21.0651 13.072 21.9811 12.9057 22.4589 12.3163C22.9685 11.6879 22.872 10.7654 22.2436 10.2559L20.6156 8.93611H21.9745C22.6905 8.93611 23.3016 8.41844 23.4194 7.71219L24.3349 2.22068C24.4837 1.32752 23.7939 0.514923 22.89 0.514923H17.3985C16.6824 0.514923 16.0712 1.0326 15.9536 1.73895L15.0445 7.19305C15.0441 7.195 15.0439 7.19705 15.0435 7.19901C15.0427 7.20291 15.0422 7.20682 15.0415 7.21072C15.0383 7.2286 15.0351 7.24656 15.0326 7.26463L14.3844 11.153C14.2514 11.951 14.7906 12.7057 15.5886 12.8388ZM18.6394 3.44461H21.1607L20.7336 6.00643H18.2123L18.6394 3.44461Z" fill="#244D4D"/>
<path d="M6.95866 12.8388C8.09597 13.0283 8.57634 12.0428 8.6444 11.6347L9.09411 8.93624H11.1219C13.0655 8.8588 13.064 6.08321 11.1219 6.00655H9.58239L10.0093 3.44473H12.691C14.6345 3.36729 14.6331 0.591705 12.691 0.515045H8.76843C8.05232 0.515045 7.44118 1.03272 7.32351 1.73907L5.75456 11.1531C5.62146 11.951 6.16062 12.7058 6.95866 12.8388Z" fill="#244D4D"/>
</g>
<defs>
<clipPath id="clip0_33602_392">
<rect width="50" height="50" fill="white" transform="translate(0.243164 0.5)"/>
</clipPath>
</defs>
</svg>
