<svg width="24" height="24" viewBox="0 0 24 24" fill="none" xmlns="http://www.w3.org/2000/svg">
<g clip-path="url(#clip0_33619_216)">
<path d="M0.00585938 24H9.89184V18.3308H0.00585938V24ZM2.16802 19.7989H7.77652V21.2045H2.16802V19.7989Z" fill="#666666"/>
<path d="M0.00585938 16.9252H9.89184V11.3497H0.00585938V16.9252ZM2.16802 12.8453H7.77652V14.2509H2.16802V12.8453Z" fill="#666666"/>
<path d="M11.2979 24H23.995V11.3497H11.2979V24ZM19.7314 12.8453H21.137V14.2856H19.7314V12.8453ZM16.9202 12.8453H18.3258V14.2856H16.9202V12.8453ZM14.109 12.8453H15.5146V14.2856H14.109V12.8453ZM14.109 15.5431H21.137V21.1889H14.109V15.5431Z" fill="#666666"/>
<path d="M19.7314 3.24052V0H15.5146V3.24286L11.2979 6.054V8.53852H23.995V6.05166L19.7314 3.24052Z" fill="#666666"/>
</g>
<defs>
<clipPath id="clip0_33619_216">
<rect width="24" height="24" fill="white"/>
</clipPath>
</defs>
</svg>
