<svg width="20" height="20" viewBox="0 0 20 20" fill="none" xmlns="http://www.w3.org/2000/svg">
<g clip-path="url(#clip0_33636_361)">
<path d="M10.0009 19.9998C15.5237 19.9998 20.0008 15.5227 20.0008 9.99991C20.0008 4.47711 15.5237 0 10.0009 0C4.47809 0 0.000976562 4.47711 0.000976562 9.99991C0.000976562 15.5227 4.47809 19.9998 10.0009 19.9998Z" fill="white"/>
<path d="M16.1252 7.18656C15.6967 7.37658 15.2357 7.50511 14.7522 7.56251C15.2458 7.26678 15.6246 6.79885 15.8034 6.24037C15.3416 6.51435 14.8298 6.71311 14.2856 6.82024C13.8495 6.35588 13.2283 6.06567 12.5404 6.06567C11.2206 6.06567 10.1502 7.13611 10.1502 8.45593C10.1502 8.64328 10.1714 8.82564 10.2124 9.00069C8.22587 8.90104 6.4645 7.9495 5.2855 6.50294C5.07979 6.85589 4.96179 7.26678 4.96179 7.70475C4.96179 8.53383 5.38408 9.26576 6.0251 9.69429C5.63346 9.68199 5.26465 9.5745 4.94254 9.395C4.94236 9.40516 4.94236 9.41532 4.94236 9.4253C4.94236 10.5834 5.76662 11.5494 6.85988 11.7689C6.65952 11.8238 6.44792 11.8528 6.23027 11.8528C6.0759 11.8528 5.92634 11.838 5.78053 11.8102C6.08463 12.7596 6.96719 13.4507 8.01339 13.4701C7.19518 14.1113 6.16467 14.4933 5.0445 14.4933C4.85198 14.4933 4.66125 14.4821 4.47461 14.4598C5.53186 15.1383 6.78857 15.5338 8.13834 15.5338C12.5349 15.5338 14.9392 11.8917 14.9392 8.73277C14.9392 8.6292 14.9369 8.52599 14.9323 8.42367C15.3997 8.08676 15.8049 7.6659 16.1252 7.18656Z" fill="#305F64"/>
</g>
<defs>
<clipPath id="clip0_33636_361">
<rect width="20" height="20" fill="white"/>
</clipPath>
</defs>
</svg>
