<svg width="28" height="28" viewBox="0 0 28 28" fill="none" xmlns="http://www.w3.org/2000/svg">
<circle cx="14" cy="14" r="14" fill="#FFB624"/>
<g clip-path="url(#clip0_33636_345)">
<path d="M21.7821 13.4738L17.0208 8.7125C16.7303 8.422 16.2591 8.422 15.9686 8.7125C15.6781 9.00307 15.6781 9.47408 15.9686 9.76464L19.4599 13.256H6.74396C6.33312 13.256 6 13.5891 6 13.9999C6 14.4107 6.33312 14.7439 6.74396 14.7439H19.4599L15.9688 18.2352C15.6782 18.5257 15.6782 18.9968 15.9688 19.2873C16.114 19.4325 16.3044 19.5052 16.4948 19.5052C16.6852 19.5052 16.8756 19.4325 17.0209 19.2873L21.7821 14.526C22.0727 14.2354 22.0727 13.7644 21.7821 13.4738Z" fill="white"/>
</g>
<defs>
<clipPath id="clip0_33636_345">
<rect width="16" height="16" fill="white" transform="translate(6 6)"/>
</clipPath>
</defs>
</svg>
