<svg width="20" height="20" viewBox="0 0 20 20" fill="none" xmlns="http://www.w3.org/2000/svg">
<g clip-path="url(#clip0_33636_372)">
<path d="M10 20C15.5229 20 20 15.5229 20 10C20 4.47716 15.5229 0 10 0C4.47716 0 0 4.47716 0 10C0 15.5229 4.47716 20 10 20Z" fill="white"/>
<path d="M17.0708 2.92798C20.9761 6.83357 20.9764 13.1655 17.0708 17.071C13.1656 20.9763 6.83332 20.9765 2.92773 17.071L17.0708 2.92798Z" fill="white"/>
<path d="M19.7998 12.0026L14.8505 7.05347L9.01327 7.71808L5.48242 13.1844L12.0801 19.7819C15.9591 18.9613 19.0087 15.8929 19.7998 12.0026Z" fill="white"/>
<path d="M15.2338 8.07002C15.2338 7.23171 14.5547 6.55225 13.7168 6.55225H6.59968C5.76201 6.55225 5.08301 7.23188 5.08301 8.07002V12.14C5.08301 12.9783 5.76214 13.6578 6.59968 13.6578H13.7167C14.5547 13.6578 15.2337 12.9781 15.2337 12.14V8.07002H15.2338ZM9.14301 11.822V7.99929L12.042 9.91071L9.14301 11.822Z" fill="#305F64"/>
</g>
<defs>
<clipPath id="clip0_33636_372">
<rect width="20" height="20" fill="white"/>
</clipPath>
</defs>
</svg>
